<?xml version="1.0" standalone="no"?>
<!DOCTYPE svg PUBLIC "-//W3C//DTD SVG 20010904//EN"
 "http://www.w3.org/TR/2001/REC-SVG-20010904/DTD/svg10.dtd">
<svg version="1.0" xmlns="http://www.w3.org/2000/svg"
 width="1.25em" height="1.25em" viewBox="0 0 64.000000 64.000000"
 preserveAspectRatio="xMidYMid meet">

<g transform="translate(0.000000,64.000000) scale(0.100000,-0.100000)"
fill="#fff" stroke="none">
<path d="M250 571 c-46 -15 -85 -39 -116 -73 -54 -57 -69 -95 -69 -178 0 -83
15 -121 69 -178 53 -57 101 -77 186 -77 57 0 84 5 115 22 47 25 95 74 121 123
26 49 26 171 0 220 -26 49 -74 98 -121 122 -43 22 -144 33 -185 19z m50 -143
l0 -113 82 -82 81 -81 -34 -21 c-145 -89 -339 30 -327 201 6 80 47 143 117
180 82 43 81 44 81 -84z m133 79 c36 -20 97 -97 97 -123 0 -7 3 -19 6 -28 5
-14 -7 -16 -95 -16 l-101 0 0 100 0 100 28 -6 c15 -4 44 -16 65 -27z m101
-234 c-8 -33 -31 -80 -42 -87 -5 -3 -35 22 -67 54 l-59 60 87 0 87 0 -6 -27z"/>
</g>
</svg>
