<?xml version="1.0" standalone="no"?>
<!DOCTYPE svg PUBLIC "-//W3C//DTD SVG 20010904//EN"
 "http://www.w3.org/TR/2001/REC-SVG-20010904/DTD/svg10.dtd">
<svg version="1.0" xmlns="http://www.w3.org/2000/svg"
 width="406.000000pt" height="360.000000pt" viewBox="0 0 406.000000 360.000000"
 preserveAspectRatio="xMidYMid meet">

<g transform="translate(0.000000,360.000000) scale(0.100000,-0.100000)"
fill="#5e6c84" stroke="none">
<path d="M1647 2816 c-84 -23 -125 -61 -214 -195 -45 -68 -87 -127 -93 -131
-7 -4 -96 -8 -198 -9 -155 -2 -194 -5 -227 -20 -60 -27 -115 -79 -141 -136
l-24 -50 0 -610 0 -610 24 -50 c24 -52 72 -101 129 -132 30 -17 96 -18 935
-23 599 -3 901 -2 898 5 -3 6 -15 41 -27 78 -77 241 96 490 350 505 42 2 93 0
114 -6 l37 -10 0 426 c0 426 0 427 -24 477 -26 57 -81 109 -141 136 -34 15
-72 18 -237 20 -130 1 -202 5 -212 13 -8 6 -48 63 -89 127 -130 202 -134 203
-517 206 -222 2 -307 -1 -343 -11z m462 -591 c111 -27 188 -70 271 -154 121
-122 170 -239 170 -407 0 -166 -51 -288 -169 -404 -115 -114 -249 -170 -406
-170 -250 0 -485 184 -550 430 -19 73 -19 217 1 294 52 201 235 375 438 416
67 13 177 11 245 -5z"/>
<path d="M1910 2049 c-124 -24 -247 -124 -291 -237 -32 -81 -32 -213 0 -294
63 -161 249 -265 422 -237 198 32 341 212 326 408 -14 185 -147 331 -327 360
-73 12 -68 12 -130 0z"/>
</g>
</svg>
